# xmcd
#
# Track frame offsets:
#	150
#	10730
#	18767
#	30116
#	42509
#	53351
#	67138
#	78726
#	87739
#	97688
#	108794
#	120591
#	131008
#	140659
#	155574
#
# Disc length: 2253 seconds
# Revision: 0
# Processed by: cddbd v1.5.2PL0 Copyright (c) Steve Scherf et al.
# Submitted via: dBpowerAMP V12.0
#
DISCID=b708cb0f
DTITLE=George Strait - Strait For The Holidays, Disc 2
DYEAR=2016
DGENRE=Country
TTITLE0=Let It Snow, Let It Snow, Let It Snow
TTITLE1=We Wish You A Merry Christmas
TTITLE2=Hark, The Herald Angels Sing
TTITLE3=Away In A Manger
TTITLE4=Winter Wonderland
TTITLE5=White Christmas
TTITLE6=We Three Kings
TTITLE7=Deck The Halls
TTITLE8=Santa Claus Is Coming To Town
TTITLE9=O Christmas Tree
TTITLE10=All I Want For Christmas (Is My Two Front Teeth)
TTITLE11=Frosty The Snow Man
TTITLE12=Santa's On The Way
TTITLE13=Christmas Cookies
TTITLE14=Merry Christmas (Wherever You Are)
EXTD=
EXTT0=
EXTT1=
EXTT2=
EXTT3=
EXTT4=
EXTT5=
EXTT6=
EXTT7=
EXTT8=
EXTT9=
EXTT10=
EXTT11=
EXTT12=
EXTT13=
EXTT14=
PLAYORDER=
